<?xml version="1.0" standalone="no"?><!DOCTYPE svg PUBLIC "-//W3C//DTD SVG 1.1//EN" "http://www.w3.org/Graphics/SVG/1.1/DTD/svg11.dtd"><svg t="1556465414723" class="icon" style="" viewBox="0 0 1024 1024" version="1.1" xmlns="http://www.w3.org/2000/svg" p-id="2719" xmlns:xlink="http://www.w3.org/1999/xlink" width="200" height="200"><defs><style type="text/css"></style></defs><path d="M512.034911 23.25104c-269.935496 0-488.760597 218.825102-488.760597 488.760597s218.825102 488.760597 488.760597 488.760597 488.760597-218.825102 488.760598-488.760597-218.825102-488.760597-488.760598-488.760597z m0 919.335409c-237.793668 0-430.574812-192.781144-430.574811-430.574812s192.781144-430.574812 430.574811-430.574812 430.574812 192.781144 430.574812 430.574812-192.781144 430.574812-430.574812 430.574812z" fill="#7ABD54" p-id="2720"></path><path d="M231.835443 516.899243l239.399596 228.065005s101.848399-184.076551 135.40996-232.952611c84.509035-123.097848 185.612655-209.399004 185.612655-209.399004l-17.548833-23.553606S568.056186 425.524286 512.034911 493.904221c-48.526945 59.256404-80.366207 91.049117-80.366206 91.049117l-137.78394-110.203878-62.049322 42.149783z" fill="#7ABD54" p-id="2721"></path></svg>